<svg width="19" height="19" viewBox="0 0 19 19" fill="none" xmlns="http://www.w3.org/2000/svg">
<path fill-rule="evenodd" clip-rule="evenodd" d="M4.18793 10.5054H7.3546C8.35288 10.4877 9.17754 11.2806 9.19918 12.2788V15.4454C9.19485 16.4449 8.38571 17.254 7.38627 17.2583H4.2196C3.22136 17.2716 2.40028 16.4753 2.38293 15.4771V12.3104C2.38293 11.3135 3.19106 10.5054 4.18793 10.5054ZM7.3546 16.0708C7.70001 16.0708 7.98002 15.7908 7.98002 15.4454V12.2788C7.98003 12.1136 7.91389 11.9553 7.79637 11.8393C7.67884 11.7233 7.51974 11.6591 7.3546 11.6613H4.18793C4.02416 11.6613 3.8671 11.7263 3.7513 11.8421C3.63549 11.9579 3.57043 12.115 3.57043 12.2788V15.4454C3.57041 15.7878 3.84562 16.0665 4.18793 16.0708H7.3546Z" fill="black"/>
<path d="M6.38085 13.2842V12.8329C6.38085 12.505 6.11502 12.2392 5.7871 12.2392C5.45918 12.2392 5.19335 12.505 5.19335 12.8329V13.2842H4.75002C4.4221 13.2842 4.15627 13.55 4.15627 13.8779C4.15627 14.2058 4.4221 14.4717 4.75002 14.4717H5.20127V14.9308C5.20127 15.2588 5.4671 15.5246 5.79502 15.5246C6.12294 15.5246 6.38877 15.2588 6.38877 14.9308V14.4717H6.84793C7.17585 14.4717 7.44168 14.2058 7.44168 13.8779C7.44168 13.55 7.17585 13.2842 6.84793 13.2842H6.38085Z" fill="black"/>
<path fill-rule="evenodd" clip-rule="evenodd" d="M10.3313 1.92375L15.8729 7.46542C15.9907 7.58538 16.0538 7.74867 16.0471 7.91667V13.4583C16.0471 15.5352 14.3635 17.2188 12.2867 17.2188H10.0146C9.68668 17.2188 9.42085 16.9529 9.42085 16.625C9.42085 16.2971 9.68668 16.0313 10.0146 16.0313H12.2867C13.7077 16.0313 14.8596 14.8793 14.8596 13.4583V8.51042H11.495C10.2926 8.51042 9.31793 7.53571 9.31793 6.33334V2.96084H7.53668C6.11442 2.9652 4.96376 4.1194 4.96377 5.54167V9.5C4.96377 9.82792 4.69794 10.0938 4.37002 10.0938C4.0421 10.0938 3.77627 9.82792 3.77627 9.5V5.54167C3.76782 4.53887 4.16028 3.57424 4.86641 2.86216C5.57254 2.15008 6.53385 1.74955 7.53668 1.74959H9.91168C10.0691 1.74973 10.22 1.81237 10.3313 1.92375ZM10.5054 3.77625V6.33334C10.5098 6.87678 10.9516 7.31502 11.495 7.315H14.0442L10.5054 3.77625Z" fill="black"/>
</svg>
