<svg width="19" height="19" viewBox="0 0 19 19" fill="none" xmlns="http://www.w3.org/2000/svg">
<path fill-rule="evenodd" clip-rule="evenodd" d="M4.18792 10.5054H7.35459C8.35286 10.4877 9.17753 11.2806 9.19917 12.2788V15.4454C9.19483 16.4449 8.3857 17.254 7.38625 17.2583H4.21959C3.22135 17.2716 2.40027 16.4753 2.38292 15.4771V12.3104C2.38292 11.3135 3.19105 10.5054 4.18792 10.5054ZM7.35459 16.0708C7.69999 16.0708 7.98 15.7908 7.98 15.4454V12.2788C7.98002 12.1136 7.91387 11.9553 7.79635 11.8393C7.67883 11.7233 7.51972 11.6591 7.35459 11.6613H4.18792C4.02415 11.6613 3.86708 11.7263 3.75128 11.8421C3.63548 11.9579 3.57042 12.115 3.57042 12.2788V15.4454C3.57039 15.7878 3.84561 16.0665 4.18792 16.0708H7.35459Z" fill="#888888"/>
<path d="M6.38084 13.2842V12.8329C6.38084 12.505 6.11501 12.2392 5.78709 12.2392C5.45917 12.2392 5.19334 12.505 5.19334 12.8329V13.2842H4.75C4.42208 13.2842 4.15625 13.55 4.15625 13.8779C4.15625 14.2058 4.42208 14.4717 4.75 14.4717H5.20125V14.9308C5.20125 15.2588 5.46708 15.5246 5.795 15.5246C6.12292 15.5246 6.38875 15.2588 6.38875 14.9308V14.4717H6.84792C7.17584 14.4717 7.44167 14.2058 7.44167 13.8779C7.44167 13.55 7.17584 13.2842 6.84792 13.2842H6.38084Z" fill="#888888"/>
<path fill-rule="evenodd" clip-rule="evenodd" d="M10.3313 1.92375L15.8729 7.46542C15.9907 7.58538 16.0537 7.74867 16.0471 7.91667V13.4583C16.0471 15.5352 14.3635 17.2188 12.2867 17.2188H10.0146C9.68667 17.2188 9.42084 16.9529 9.42084 16.625C9.42084 16.2971 9.68667 16.0313 10.0146 16.0313H12.2867C13.7077 16.0313 14.8596 14.8793 14.8596 13.4583V8.51042H11.495C10.2926 8.51042 9.31792 7.53571 9.31792 6.33334V2.96084H7.53667C6.11441 2.9652 4.96375 4.1194 4.96375 5.54167V9.5C4.96375 9.82792 4.69792 10.0938 4.37 10.0938C4.04208 10.0938 3.77625 9.82792 3.77625 9.5V5.54167C3.76781 4.53887 4.16026 3.57424 4.86639 2.86216C5.57253 2.15008 6.53383 1.74955 7.53667 1.74959H9.91167C10.0691 1.74973 10.22 1.81237 10.3313 1.92375ZM10.5054 3.77625V6.33334C10.5098 6.87678 10.9515 7.31502 11.495 7.315H14.0442L10.5054 3.77625Z" fill="#888888"/>
</svg>
