<svg width="235" height="235" viewBox="0 0 235 235" fill="none" xmlns="http://www.w3.org/2000/svg">
<path fill-rule="evenodd" clip-rule="evenodd" d="M204.254 90.2791L135.713 21.7375C134.337 20.3599 132.47 19.585 130.523 19.5833H101.148C88.7615 19.5831 76.8867 24.5236 68.1558 33.3096C59.4249 42.0956 54.5593 54.0013 54.6375 66.3875V101.833C54.6375 105.889 57.9254 109.177 61.9812 109.177C66.0371 109.177 69.325 105.889 69.325 101.833V66.3875C69.325 48.8122 83.5726 34.5646 101.148 34.5646H123.179V76.1791C123.233 91.0283 135.257 103.053 150.106 103.106H191.721V164.304C191.667 181.857 177.451 196.073 159.898 196.127H129.935C125.88 196.127 122.592 199.415 122.592 203.471C122.592 207.527 125.88 210.815 129.935 210.815H159.898C185.585 210.815 206.408 189.991 206.408 164.304V95.7625C206.487 93.7142 205.706 91.7262 204.254 90.2791ZM137.867 76.1791V44.65L181.635 88.4187H150.106C143.347 88.4187 137.867 82.9389 137.867 76.1791Z" fill="black"/>
<path d="M80.1937 136.3C78.238 136.273 76.3546 137.039 74.9716 138.422C73.5886 139.805 72.8234 141.688 72.85 143.644V161.269L65.0167 169.592C63.617 170.956 62.8275 172.827 62.8275 174.781C62.8275 176.736 63.617 178.607 65.0167 179.971C66.3926 181.348 68.2592 182.123 70.2062 182.125C71.9391 181.946 73.5606 181.187 74.8083 179.971L85.1875 169.592C86.5474 168.204 87.3191 166.345 87.3417 164.402V143.644C87.3431 139.663 84.1729 136.406 80.1937 136.3Z" fill="black"/>
<path fill-rule="evenodd" clip-rule="evenodd" d="M29.375 162.052C29.375 135.013 51.2944 113.094 78.3333 113.094C91.3179 113.094 103.771 118.252 112.952 127.433C122.134 136.615 127.292 149.068 127.292 162.052C127.292 189.091 105.372 211.01 78.3333 211.01C51.2944 211.01 29.375 189.091 29.375 162.052ZM44.7649 176.017C50.4658 189.468 63.7246 198.146 78.3333 197.988C98.0809 197.773 113.976 181.703 113.975 161.954C113.974 147.345 105.152 134.181 91.639 128.628C78.1262 123.074 62.5973 126.23 52.3234 136.616C42.0495 147.003 39.064 162.566 44.7649 176.017Z" fill="black"/>
</svg>
